<svg width="35" height="35" xmlns="http://www.w3.org/2000/svg">
  <g id="ic" fill="#000000">
   <path id="svg_2" fill="#000000" d="m17.5,6.624958c-1.035502,0 -1.875003,0.859224 -1.875003,1.919124l0,7.036786l-6.875012,0c-1.035533,0 -1.875003,0.859179 -1.875003,1.919108c0,1.059868 0.83947,1.919124 1.875003,1.919124l6.875012,0l0,7.036818c0,1.0599 0.839501,1.919124 1.875003,1.919124c1.035564,0 1.875003,-0.859224 1.875003,-1.919124l0,-7.036818l6.875012,0c1.035533,0 1.875003,-0.859256 1.875003,-1.919124c0,-1.059929 -0.83947,-1.919108 -1.875003,-1.919108l-6.875012,0l0,-7.036786c0,-1.0599 -0.839439,-1.919124 -1.875003,-1.919124z"/>
  </g>
</svg>
