<svg xmlns="http://www.w3.org/2000/svg" data-name="Layer 1" viewBox="0 0 100 100" width="35" height="35" x="0px" y="0px"><g id="ic" fill="#000000"><path d="M42.93,74.09L21.45,52.6h0l11.4-11.4L43.16,52.41,70.94,29.35l8.3,8.44Z"/><path d="M85.36,14.65a50,50,0,1,0,0,70.71A49.83,49.83,0,0,0,85.36,14.65ZM79.83,79.83A42.19,42.19,0,0,1,20.17,20.17,42.19,42.19,0,0,1,79.83,79.83Z"/><polygon points="43.16 52.41 32.85 41.2 21.45 52.6 42.93 74.09 79.23 37.79 70.94 29.35 43.16 52.41"/><polygon points="21.45 52.6 21.45 52.6 21.45 52.6 21.45 52.6"/></g></svg>
