<svg width="35" height="35" xmlns="http://www.w3.org/2000/svg">
  <g fill="#000000" id="ic">
   <path fill="#000000" id="Shape" d="m29.246707,18.523375c-0.190154,-0.1935 -0.416123,-0.290437 -0.6768,-0.290437l-3.369231,0l0,-4.491188l2.602154,-2.642813c0.190523,-0.1935 0.285969,-0.422625 0.285969,-0.687562c0,-0.26475 -0.095446,-0.493875 -0.285969,-0.687375c-0.190338,-0.1935 -0.416123,-0.29025 -0.6768,-0.29025c-0.260677,0 -0.486277,0.09675 -0.6768,0.29025l-2.602154,2.642812l-12.694892,0l-2.602154,-2.642812c-0.190523,-0.1935 -0.416123,-0.29025 -0.6768,-0.29025c-0.260861,0 -0.486461,0.09675 -0.676984,0.29025c-0.190524,0.1935 -0.285785,0.422625 -0.285785,0.687375c0,0.264937 0.095261,0.494062 0.285785,0.687562l2.602153,2.642813l0,4.491188l-3.36923,0c-0.260677,0 -0.486277,0.096937 -0.6768,0.290437c-0.190523,0.193313 -0.285785,0.422813 -0.285785,0.687375c0,0.26475 0.095262,0.49425 0.285785,0.687375c0.190523,0.1935 0.416123,0.290625 0.6768,0.290625l3.36923,0c0,1.629 0.290954,3.024563 0.872493,4.185375l-3.038216,3.467625c-0.170584,0.203812 -0.248307,0.440625 -0.233169,0.71025c0.014954,0.269625 0.117785,0.496313 0.308308,0.679875c0.190523,0.162938 0.405969,0.2445 0.646707,0.2445c0.2808,0 0.521354,-0.106687 0.722031,-0.320813l2.752431,-3.162187l0.225785,0.214125c0.140307,0.132562 0.358338,0.29775 0.654277,0.496313c0.295938,0.198562 0.626769,0.397125 0.992676,0.596062c0.366093,0.198563 0.802339,0.366563 1.308554,0.504c0.506585,0.137625 1.015385,0.206438 1.526769,0.206438l0,-13.687501l1.925354,0l0,13.687501c0.481293,0 0.96757,-0.066188 1.458831,-0.19875c0.491446,-0.132188 0.902585,-0.279938 1.2336,-0.442875c0.330831,-0.163126 0.657046,-0.34875 0.977539,-0.557626c0.320861,-0.208687 0.531507,-0.353812 0.631754,-0.435374c0.100615,-0.081751 0.175753,-0.147751 0.225784,-0.198563l2.9784,3.009375c0.180739,0.1935 0.405969,0.29025 0.6768,0.29025c0.270831,0 0.496246,-0.09675 0.676985,-0.29025c0.190154,-0.1935 0.2856,-0.422813 0.2856,-0.687562c0,-0.26475 -0.095446,-0.494063 -0.2856,-0.687375l-3.128677,-3.192563c0.672,-1.212 1.007815,-2.68875 1.007815,-4.430063l3.369231,0c0.260677,0 0.486646,-0.096937 0.6768,-0.290437c0.190523,-0.193313 0.286154,-0.422625 0.286154,-0.687375c0,-0.26475 -0.095816,-0.49425 -0.286708,-0.68775l0,0z"/>
   <path fill="#000000" id="Shape" d="m20.906707,6.951625c-0.937477,-0.952125 -2.073046,-1.428375 -3.406708,-1.428375c-1.333846,0 -2.46923,0.47625 -3.406892,1.428375c-0.937477,0.952313 -1.406215,2.105625 -1.406215,3.460125l9.626031,0c0,-1.354313 -0.468554,-2.507812 -1.406216,-3.460125l0,0z"/>
  </g>
</svg>
