<svg width="35" height="35" xmlns="http://www.w3.org/2000/svg">
  <g fill="#000000" id="ic">
   <path id="Shape" d="m26.960175,12.016063c-0.976905,-1.673746 -2.302143,-2.998984 -3.975889,-3.975888c-1.674095,-0.976905 -3.501667,-1.46527 -5.483936,-1.46527c-1.982096,0 -3.810191,0.488365 -5.483937,1.46527c-1.673921,0.97673 -2.999159,2.301968 -3.976063,3.975888c-0.97708,1.673921 -1.465445,3.502016 -1.465445,5.483937c0,1.982095 0.48854,3.809841 1.46527,5.483936c0.976905,1.673572 2.302143,2.998985 3.976063,3.975889c1.673921,0.976905 3.501842,1.46527 5.483937,1.46527c1.982095,0 3.810191,-0.488365 5.483936,-1.46527c1.673746,-0.97673 2.998985,-2.302143 3.975889,-3.975889c0.976731,-1.67392 1.465096,-3.502015 1.465096,-5.483936c0,-1.982095 -0.488365,-3.81019 -1.464921,-5.483937l0,0zm-11.280762,-2.710015c0,-0.132873 0.042603,-0.241826 0.127984,-0.327207c0.085381,-0.085206 0.194508,-0.127984 0.327207,-0.127984l2.731492,0c0.132698,0 0.241825,0.042778 0.326857,0.127984c0.085206,0.085381 0.128159,0.194334 0.128159,0.327207l0,2.276127c0,0.132698 -0.042953,0.241825 -0.128159,0.327031c-0.085032,0.085381 -0.194159,0.127984 -0.326857,0.127984l-2.731492,0c-0.132699,0 -0.241826,-0.042603 -0.327207,-0.127984c-0.085381,-0.085206 -0.127984,-0.194333 -0.127984,-0.327031l0,-2.276127l0,0zm5.46246,15.022158c0,0.132699 -0.042952,0.241826 -0.127984,0.326858c-0.085031,0.08538 -0.194158,0.127984 -0.327206,0.127984l-6.373016,0c-0.132873,0 -0.241825,-0.042604 -0.327206,-0.127984c-0.085381,-0.085207 -0.127984,-0.194334 -0.127984,-0.327032l0,-2.276127c0,-0.133048 0.042603,-0.241826 0.127984,-0.327207c0.085381,-0.085206 0.194508,-0.127984 0.327206,-0.127984l1.365746,0l0,-4.552079l-1.365746,0c-0.132873,0 -0.241825,-0.042603 -0.327206,-0.127984c-0.085381,-0.085207 -0.127984,-0.194333 -0.127984,-0.327207l0,-2.275952c0,-0.132873 0.042603,-0.241825 0.127984,-0.327206c0.085381,-0.085381 0.194508,-0.127984 0.327206,-0.127984l4.552429,0c0.132698,0 0.241825,0.042603 0.326857,0.127984c0.085206,0.085381 0.128159,0.194333 0.128159,0.327206l0,7.283397l1.365396,0c0.132873,0 0.242,0.042778 0.327207,0.127984c0.085031,0.085206 0.127984,0.194333 0.127984,0.327206l0,2.276127l0.000174,0z"/>
  </g>
</svg>
