<svg width="35" height="35" xmlns="http://www.w3.org/2000/svg">
  <g fill="#000000" id="ic">
   <path fill="#0E0B16" id="Shape" d="m30.257167,17.920583c-0.198834,-0.416333 -0.502667,-0.7355 -0.909667,-0.957c-0.407333,-0.221833 -0.855333,-0.332667 -1.344167,-0.332667l-2.607333,0l0,-2.172666c0,-0.832834 -0.298833,-1.548 -0.896167,-2.1455c-0.597666,-0.5975 -1.312833,-0.896167 -2.1455,-0.896167l-7.386833,0l0,-0.4345c0,-0.832833 -0.298833,-1.548 -0.896167,-2.145333c-0.5975,-0.5975 -1.312666,-0.896334 -2.1455,-0.896334l-4.345166,0c-0.832834,0 -1.548,0.298834 -2.1455,0.896334c-0.5975,0.597333 -0.896167,1.3125 -0.896167,2.145333l0,13.035833c0,0.832667 0.298667,1.547834 0.896167,2.145167c0.5975,0.597667 1.312666,0.8965 2.1455,0.8965l14.774,0c0.606333,0 1.24,-0.156333 1.901,-0.468667c0.660833,-0.312166 1.185666,-0.708333 1.575,-1.188166l4.005833,-4.929c0.416333,-0.525 0.624333,-1.068 0.624333,-1.6295c0.000167,-0.326 -0.067666,-0.6335 -0.203666,-0.923667l0,0zm-23.98,-6.938333c0,-0.362 0.126666,-0.669834 0.380166,-0.923334c0.253334,-0.253333 0.561167,-0.380166 0.923334,-0.380166l4.345333,0c0.362167,0 0.669833,0.126666 0.923333,0.380166c0.253334,0.2535 0.380167,0.561334 0.380167,0.923334l0,0.869166c0,0.362167 0.126833,0.67 0.380167,0.923334c0.253333,0.253333 0.561166,0.380166 0.923333,0.380166l7.8215,0c0.362,0 0.67,0.126834 0.923333,0.380167c0.253334,0.253333 0.380167,0.561167 0.380167,0.923333l0,2.172667l-10.4285,0c-0.6155,0 -1.249333,0.156167 -1.901167,0.4685c-0.651833,0.312333 -1.176833,0.708333 -1.575166,1.188333l-3.476,4.277167l0,-11.582833l0,0zm22.201333,8.391666l-3.992167,4.929167c-0.226166,0.2805 -0.547666,0.5205 -0.964166,0.719333c-0.416334,0.199167 -0.805667,0.298834 -1.167667,0.298834l-14.773833,0c-0.479834,0 -0.719667,-0.1585 -0.719667,-0.475334c0,-0.144833 0.0815,-0.325833 0.2445,-0.543333l3.992167,-4.929c0.235333,-0.280667 0.558833,-0.518167 0.970833,-0.712833c0.411833,-0.194667 0.798833,-0.292 1.161,-0.292l14.773833,0c0.479834,0 0.719667,0.158666 0.719667,0.475333c0,0.154167 -0.081333,0.330833 -0.2445,0.529833l0,0z"/>
  </g>
</svg>
