<svg width="35" height="35" xmlns="http://www.w3.org/2000/svg">
  <g fill="#000000" id="ic">
   <path id="Shape" d="m27.097375,24.995415l-6.94627,-10.76767l0,-5.41816l0.8839,0c0.23932,0 0.44661,-0.08617 0.62135,-0.25817c0.17509,-0.17183 0.26254,-0.37567 0.26254,-0.611c0,-0.23533 -0.08745,-0.439 -0.26254,-0.611c-0.17474,-0.172 -0.38203,-0.258 -0.62135,-0.258l-7.07017,0c-0.2395,0 -0.44661,0.086 -0.62153,0.258c-0.17491,0.172 -0.26237,0.37567 -0.26237,0.611c0,0.23533 0.08746,0.43917 0.26237,0.611c0.17509,0.172 0.3822,0.25817 0.62153,0.25817l0.88372,0l0,5.418l-6.94593,10.76766c-0.51542,0.806 -0.6144,1.49634 -0.29678,2.071c0.31763,0.57484 0.96441,0.86234 1.94017,0.86234l15.90831,0c0.97559,0 1.6222,-0.2875 1.93983,-0.86234c0.31762,-0.57466 0.21864,-1.26483 -0.29678,-2.07083l0,0zm-14.51339,-4.01933l3.7561,-5.82534l0.2761,-0.421l0,-0.50233l0,-5.418l1.76746,0l0,5.418l0,0.50233l0.2761,0.421l3.7561,5.82534l-9.83186,0l0,0z"/>
 </g>
</svg>
