<svg width="35" height="35" xmlns="http://www.w3.org/2000/svg">
  <g fill="#000000" id="ic">
   <path fill="#0E0B16" id="Shape" d="m27.656917,12.828668c-0.181,-0.434334 -0.3985,-0.778334 -0.652,-1.031834l-3.802,-3.802c-0.253333,-0.253333 -0.5975,-0.470666 -1.032,-0.651833c-0.434333,-0.181 -0.832666,-0.2715 -1.194666,-0.2715l-12.601167,0c-0.362,0 -0.669833,0.126667 -0.923333,0.380167c-0.2535,0.253333 -0.380167,0.561166 -0.380167,0.923333l0,18.25c0,0.362167 0.126667,0.67 0.380167,0.923333c0.2535,0.253334 0.561333,0.380167 0.923333,0.380167l18.25,0c0.362167,0 0.67,-0.126833 0.923333,-0.380167c0.253334,-0.253333 0.38,-0.561166 0.38,-0.923333l0,-12.601167c0,-0.362166 -0.0905,-0.7605 -0.2715,-1.195166l0,0zm-11.894833,-3.584667c0,-0.117667 0.043,-0.219333 0.129,-0.3055c0.086,-0.085833 0.187833,-0.128833 0.3055,-0.128833l2.607333,0c0.117334,0 0.219167,0.042833 0.305167,0.128833c0.086167,0.086167 0.129167,0.187833 0.129167,0.3055l0,4.345167c0,0.117833 -0.043167,0.219666 -0.129167,0.305666c-0.086,0.085834 -0.187833,0.128834 -0.305167,0.128834l-2.607333,0c-0.117667,0 -0.2195,-0.042834 -0.3055,-0.128834c-0.086,-0.086166 -0.129,-0.187833 -0.129,-0.305666l0,-4.345167l0,0zm6.952333,16.9465l-10.428666,0l0,-5.214333l10.428666,0l0,5.214333l0,0zm3.4765,0l-1.7385,0l-0.000166,0l0,-5.649c0,-0.362167 -0.126667,-0.669833 -0.380167,-0.923333c-0.253333,-0.2535 -0.561167,-0.380167 -0.923167,-0.380167l-11.297666,0c-0.362167,0 -0.67,0.126667 -0.9235,0.380167c-0.253334,0.253333 -0.380167,0.561166 -0.380167,0.923333l0,5.649l-1.738,0l0,-17.381l1.738,0l0,5.648833c0,0.362167 0.126667,0.669834 0.380167,0.923334c0.2535,0.253333 0.561333,0.380166 0.9235,0.380166l7.8215,0c0.362,0 0.670166,-0.126833 0.923333,-0.380166c0.253167,-0.253334 0.380167,-0.561167 0.380167,-0.923334l0,-5.648833c0.135666,0 0.312166,0.045167 0.5295,0.135667c0.2175,0.0905 0.371333,0.181 0.461833,0.2715l3.815833,3.815833c0.090667,0.0905 0.181167,0.246833 0.271667,0.4685c0.090667,0.221833 0.135833,0.396167 0.135833,0.522833l0,12.166667l0,0z"/>
  </g>
</svg>
