<svg width="35" height="35" xmlns="http://www.w3.org/2000/svg">

 <g>
  <title>background</title>
  <rect fill="none" id="canvas_background" height="402" width="582" y="-1" x="-1"/>
 </g>
 <g>
  <title>Layer 1</title>
  <g stroke="null" id="ic" fill="#000000">
   <path stroke-width="0" stroke="null" id="svg_1" d="m13.476058,21.614707l7.783579,0l0,11.106392c0,0.436168 -0.314764,0.629393 -0.697592,0.434364l-6.388396,-3.254603c-0.385268,-0.196274 -0.697592,-0.711564 -0.697592,-1.144818l0,-7.141335zm0,0l7.783579,0l9.674938,-16.429813c1.104809,-1.876165 0.2598,-3.397095 -1.887646,-3.397095l-23.358163,0c-2.147326,0 -2.991315,1.522861 -1.887646,3.397095l9.674938,16.429813zm-5.134204,-13.07175l3.871268,6.43445c0.112333,0.186714 0.35195,0.245287 0.535195,0.130826c0.183245,-0.114457 0.240731,-0.358605 0.128398,-0.545315l-3.871268,-6.43445c-0.112333,-0.18671 -0.35195,-0.245283 -0.535195,-0.130826c-0.183245,0.114457 -0.240731,0.358605 -0.128398,0.545315z"/>
  </g>
 </g>
</svg>