<svg width="35" height="35" xmlns="http://www.w3.org/2000/svg">
  <g id="ic" stroke="null">
   <path d="m15.11644,1.33837c-4.54309,0 -8.21021,3.95734 -8.21021,8.78349c0,1.3631 0.29235,2.64526 0.81247,3.79886a0.68425,0.70275 0 1 0 1.24008,-0.58191c-0.43856,-0.97272 -0.68418,-2.0592 -0.68418,-3.21695c0,-4.09966 3.07192,-7.37813 6.84184,-7.37813c3.76996,0 6.84184,3.27847 6.84184,7.37813c0,1.15775 -0.24562,2.24423 -0.68418,3.21695a0.68425,0.70275 0 1 0 1.24008,0.58191c0.52012,-1.1536 0.81247,-2.43576 0.81247,-3.79886c0,-4.82616 -3.66713,-8.78349 -8.21021,-8.78349zm0,2.45938c-3.22839,0 -5.81557,2.86346 -5.81557,6.32411c0,1.14629 0.29006,2.21373 0.78038,3.1401a0.68425,0.70275 0 1 0 1.19732,-0.66974c-0.38609,-0.72951 -0.60933,-1.5648 -0.60933,-2.47036c0,-2.74861 2.00764,-4.91876 4.4472,-4.91876c2.43956,0 4.4472,2.17014 4.4472,4.91876c0,0.90555 -0.22325,1.74085 -0.60933,2.47036a0.68425,0.70275 0 1 0 1.19732,0.66974c0.49025,-0.92637 0.78038,-1.99381 0.78038,-3.1401c0,-3.46065 -2.58717,-6.32411 -5.81557,-6.32411zm0,3.16206c-1.50428,0 -2.73674,1.26573 -2.73674,2.81072l0,9.67281c-0.42372,-0.94061 -1.18408,-1.95731 -2.13808,-2.20683c-1.29793,-0.36192 -2.88781,0.70447 -3.24988,1.94333c-0.18456,0.69052 -0.06424,1.47636 0.29933,2.43742c1.77731,4.38925 3.96564,8.60325 6.62804,11.80283c0.12729,0.1503 0.31921,0.24063 0.51314,0.24155l9.23649,0c0.14556,0 0.29027,-0.05242 0.40623,-0.14275c0.98478,-0.74923 1.77854,-2.02554 2.43741,-3.54632c0.6589,-1.52077 1.16328,-3.28492 1.42184,-5.00659c0.25859,-1.72167 0.25753,-3.33386 -0.10694,-4.76504c-0.3517,-1.38129 -1.30057,-2.53084 -2.71532,-2.70092c-0.33347,0 -0.68566,0.02846 -0.98352,0.0988c-0.17549,-0.43092 -0.42146,-0.79842 -0.72695,-1.02107c-0.51156,-0.37282 -1.03223,-0.49023 -1.45389,-0.48309c-0.40483,0.00696 -0.77402,0.15836 -1.10113,0.39526c-0.1472,-0.2307 -0.29858,-0.47076 -0.49176,-0.61484c-0.50719,-0.37829 -1.04677,-0.48309 -1.47527,-0.48309c-0.35444,0 -0.69749,0.10096 -1.02628,0.24155l0,-5.86298c-0.02908,-1.88066 -1.47325,-2.81434 -2.73674,-2.81072l0.00002,-0.00003zm0,1.40536c0.76991,0 1.36837,0.61464 1.36837,1.40536l0,7.37814c-0.00445,0.31849 0.23225,0.62043 0.53452,0.69168c0.30227,0.07125 0.63855,-0.09563 0.76971,-0.38426c0.15114,-0.32271 0.72051,-0.65876 1.09042,-0.65876c0.16605,0 0.47407,0.07087 0.67351,0.21959c0.19941,0.14872 0.35277,0.32278 0.35277,0.83443c0,0.31238 0.22804,0.60792 0.52381,0.68072c0.29581,0.0728 0.6313,-0.08418 0.76971,-0.36234c0.27819,-0.57145 0.42724,-0.66386 0.76971,-0.66972c0.09479,0 0.42693,0.06321 0.64142,0.21959c0.21456,0.15635 0.37418,0.33613 0.37418,0.83443c-0.00342,0.27366 0.16191,0.53857 0.40623,0.64776c0.24436,0.10923 0.55481,0.05639 0.74833,-0.13175c0.25944,-0.13133 0.51386,-0.17117 0.84456,-0.16467c0.81565,0.10656 1.23916,0.63157 1.52871,1.67983c0.29225,1.05792 0.30313,2.57005 0.06414,4.1612c-0.23895,1.59115 -0.71128,3.26201 -1.31493,4.65525c-0.56609,1.30667 -1.25941,2.3271 -1.8708,2.85463l-8.62712,0c-2.40156,-2.90965 -4.69491,-7.37757 -6.18975,-11.14407c-0.31124,-0.82263 -0.33922,-1.295 -0.26724,-1.55907c0.25352,-0.67963 0.96299,-1.06333 1.57147,-0.96618c0.72742,0.28139 0.90767,0.7799 1.2187,1.35048l1.3577,2.79972c0.13841,0.27816 0.47387,0.43513 0.76971,0.36234c0.29577,-0.0728 0.5232,-0.36834 0.52381,-0.68072l0,-12.64824c0,-0.79072 0.59846,-1.40536 1.36837,-1.40536l0,0l-0.00002,-0.00001z" fill="#000000" id="svg_2"/>
  </g>
</svg>
